# Blender v2.80 (sub 75) OBJ File: 'Fabrics.blend'
# www.blender.org
o BannerMesh02_Plane.002
v 1.090896 -3.553101 -0.000000
v -1.094247 -3.553101 0.000000
v 1.090897 0.038681 0.395627
v -1.094247 0.038681 0.395628
v 1.090896 -1.548319 -0.000000
v -1.094247 -1.548319 0.000000
v -0.001675 -3.553101 -0.000000
v -0.001675 0.038681 0.395628
v -0.001675 -1.548319 0.000000
v 1.090896 -2.550710 -0.000000
v -1.094247 -2.550710 0.000000
v 0.544611 -3.553101 -0.000000
v 0.544611 0.038681 0.395627
v 1.090896 -0.545927 -0.000000
v -1.094247 -0.545927 0.000000
v -0.547961 -3.553101 0.000000
v -0.547961 0.038681 0.395628
v 0.544611 -1.548319 -0.000000
v -0.547961 -1.548319 0.000000
v -0.001675 -2.550710 0.000000
v -0.001675 -0.545927 0.000000
v -0.547961 -0.545927 0.000000
v -0.547961 -2.550710 0.000000
v 0.544611 -2.550710 -0.000000
v 0.544611 -0.545927 0.000000
v 1.090896 0.015436 0.000000
v -1.094247 0.015436 0.000000
v -0.001675 0.015436 0.000000
v -0.547961 0.015436 0.000000
v 0.544611 0.015436 0.000000
vt 0.405911 0.907813
vt 0.405911 0.980101
vt 0.320554 0.980101
vt 0.320554 0.907813
vt 0.405911 0.510230
vt 0.405911 0.666853
vt 0.320554 0.666853
vt 0.320554 0.510230
vt 0.576625 0.510230
vt 0.576625 0.666853
vt 0.491268 0.666853
vt 0.491268 0.510230
vt 0.576625 0.907813
vt 0.576625 0.980101
vt 0.491268 0.980101
vt 0.491268 0.907813
vt 0.576625 0.823477
vt 0.491268 0.823477
vt 0.661983 0.666853
vt 0.661983 0.823477
vt 0.661983 0.907813
vt 0.661983 0.980101
vt 0.576625 0.412665
vt 0.491268 0.412665
vt 0.661983 0.412665
vt 0.661983 0.510230
vt 0.405911 0.412665
vt 0.320554 0.412665
vt 0.405911 0.823477
vt 0.320554 0.823477
vn 0.0000 0.6861 -0.7275
vn 0.0000 0.9983 -0.0586
vn 0.0000 0.0000 -1.0000
s 1
f 30/1/1 13/2/2 3/3/2 26/4/1
f 24/5/3 18/6/3 5/7/3 10/8/3
f 23/9/3 19/10/3 9/11/3 20/12/3
f 29/13/1 17/14/2 8/15/2 28/16/1
f 19/10/3 22/17/3 21/18/3 9/11/3
f 6/19/3 15/20/3 22/17/3 19/10/3
f 27/21/1 4/22/2 17/14/2 29/13/1
f 16/23/3 23/9/3 20/12/3 7/24/3
f 2/25/3 11/26/3 23/9/3 16/23/3
f 11/26/3 6/19/3 19/10/3 23/9/3
f 12/27/3 24/5/3 10/8/3 1/28/3
f 7/24/3 20/12/3 24/5/3 12/27/3
f 20/12/3 9/11/3 18/6/3 24/5/3
f 18/6/3 25/29/3 14/30/3 5/7/3
f 9/11/3 21/18/3 25/29/3 18/6/3
f 28/16/1 8/15/2 13/2/2 30/1/1
f 21/18/3 28/16/1 30/1/1 25/29/3
f 15/20/3 27/21/1 29/13/1 22/17/3
f 22/17/3 29/13/1 28/16/1 21/18/3
f 25/29/3 30/1/1 26/4/1 14/30/3
