# Blender v2.80 (sub 75) OBJ File: 'Fabrics.blend'
# www.blender.org
o BannerMesh03_Plane.003
v -1.000923 0.025934 0.395627
v 1.008664 0.025934 0.395627
v -0.547501 -3.972619 0.000000
v 1.008663 -3.972619 -0.000000
v 1.008664 -1.764451 -0.000000
v 0.003870 0.025934 0.395627
v -0.774212 -1.764451 0.000000
v 0.230581 -3.972619 0.000000
v 0.117226 -1.764451 -0.000000
v 1.008664 -0.660367 -0.000001
v 0.506267 0.025934 0.395627
v -0.660856 -2.868535 0.000000
v 0.619622 -3.972619 -0.000000
v 1.008664 -2.868535 -0.000000
v -0.498527 0.025934 0.395627
v -0.887568 -0.660367 0.000000
v -0.158460 -3.972619 0.000000
v 0.060548 -0.660367 -0.000000
v 0.173904 -2.868535 -0.000000
v 0.562945 -1.764451 -0.000000
v -0.328493 -1.764451 0.000000
v -0.243476 -2.868535 0.000000
v 0.591284 -2.868535 -0.000000
v 0.534606 -0.660367 -0.000000
v -0.413510 -0.660367 -0.000000
v 1.008664 0.018645 -0.000001
v 0.025691 0.018645 -0.000000
v -0.957282 0.018645 0.000000
v 0.517177 0.018645 -0.000001
v -0.465795 0.018645 -0.000000
vt 0.083160 0.284993
vt 0.083160 0.361787
vt 0.016743 0.368606
vt 0.016743 0.290107
vt 0.083160 0.131403
vt 0.083160 0.208198
vt 0.016743 0.211607
vt 0.016743 0.133108
vt 0.534282 0.119824
vt 0.534282 0.185040
vt 0.361769 0.193896
vt 0.361769 0.124252
vt 0.534282 0.250255
vt 0.534282 0.315471
vt 0.361769 0.333183
vt 0.361769 0.263539
vt 0.706795 0.176184
vt 0.706795 0.236971
vt 0.706795 0.297759
vt 0.534282 0.054608
vt 0.361769 0.054608
vt 0.706795 0.054608
vt 0.706795 0.115396
vt 0.083160 0.054608
vt 0.016743 0.054608
vt 0.189256 0.128680
vt 0.189256 0.054608
vt 0.189256 0.202751
vt 0.189256 0.276823
vt 0.189256 0.350895
vn 0.0000 0.7006 -0.7136
vn 0.0000 0.7461 -0.6658
vn 0.0000 0.9998 -0.0184
vn 0.0000 0.0000 -1.0000
s 1
f 30/1/1 28/2/2 1/3/3 15/4/3
f 29/5/1 27/6/1 6/7/3 11/8/3
f 23/9/4 19/10/4 9/11/4 20/12/4
f 22/13/4 12/14/4 7/15/4 21/16/4
f 19/10/4 22/13/4 21/16/4 9/11/4
f 8/17/4 17/18/4 22/13/4 19/10/4
f 17/18/4 3/19/4 12/14/4 22/13/4
f 14/20/4 23/9/4 20/12/4 5/21/4
f 4/22/4 13/23/4 23/9/4 14/20/4
f 13/23/4 8/17/4 19/10/4 23/9/4
f 26/24/1 29/5/1 11/8/3 2/25/3
f 5/21/4 20/12/4 24/26/4 10/27/4
f 20/12/4 9/11/4 18/28/4 24/26/4
f 27/6/1 30/1/1 15/4/3 6/7/3
f 9/11/4 21/16/4 25/29/4 18/28/4
f 21/16/4 7/15/4 16/30/4 25/29/4
f 18/28/4 25/29/4 30/1/1 27/6/1
f 10/27/4 24/26/4 29/5/1 26/24/1
f 24/26/4 18/28/4 27/6/1 29/5/1
f 25/29/4 16/30/4 28/2/2 30/1/1
