# Blender v2.80 (sub 75) OBJ File: 'Fabrics.blend'
# www.blender.org
o PendantMesh06_Plane.009
v 0.037531 -2.129402 -0.000000
v 0.431243 0.146118 -0.000000
v -0.319011 -2.129402 -0.000000
v -0.444779 0.146118 -0.000000
v 0.332815 -0.422762 -0.000000
v 0.234387 -0.991642 -0.000000
v 0.135959 -1.560522 -0.000000
v -0.413337 -0.422762 -0.000000
v -0.381895 -0.991642 -0.000000
v -0.350453 -1.560522 -0.000000
vt 0.987283 0.266663
vt 0.992196 0.355550
vt 0.855317 0.355550
vt 0.870697 0.266663
vt 0.972544 0.000000
vt 0.977457 0.088888
vt 0.901455 0.088888
vt 0.916835 0.000000
vt 0.982370 0.177775
vt 0.886076 0.177775
vn -0.0000 0.0000 -1.0000
s off
f 8/1/1 4/2/1 2/3/1 5/4/1
f 3/5/1 10/6/1 7/7/1 1/8/1
f 10/6/1 9/9/1 6/10/1 7/7/1
f 9/9/1 8/1/1 5/4/1 6/10/1
