# Blender v2.80 (sub 75) OBJ File: 'Fabrics.blend'
# www.blender.org
o PendantMesh01_Plane.004
v -0.463403 0.086421 0.000000
v 0.472696 0.087168 0.000000
v 0.472696 -0.113354 0.000000
v -0.069783 -1.946865 0.000000
v -0.463403 -0.118274 0.000000
v -0.356312 -1.946865 0.000000
v 0.201456 -1.030109 0.000000
v -0.409858 -1.032570 0.000000
vt 0.151947 0.342154
vt 0.005682 0.342271
vt 0.005682 0.310940
vt 0.151947 0.310171
vt 0.143581 0.167312
vt 0.048063 0.167697
vt 0.090444 0.024454
vt 0.135214 0.024454
vn -0.0000 0.0000 -1.0000
s off
f 1/1/1 2/2/1 3/3/1 5/4/1
f 8/5/1 7/6/1 4/7/1 6/8/1
f 5/4/1 3/3/1 7/6/1 8/5/1
