# Blender v2.80 (sub 75) OBJ File: 'Fabrics.blend'
# www.blender.org
o PendantMesh04_Plane.007
v 0.408220 0.041342 0.000000
v -0.467803 0.041342 0.000000
v 0.371225 -1.795610 -0.000000
v -0.247289 -1.795610 -0.000000
v 0.395888 -0.570976 -0.000000
v 0.383557 -1.183293 -0.000000
v -0.394298 -0.570976 0.000000
v -0.320794 -1.183293 0.000000
vt 0.306375 0.248241
vt 0.317861 0.343915
vt 0.180982 0.343915
vt 0.182909 0.248241
vt 0.283405 0.056892
vt 0.294890 0.152566
vt 0.184836 0.152566
vt 0.186763 0.056892
vn -0.0000 0.0000 -1.0000
s off
f 7/1/1 2/2/1 1/3/1 5/4/1
f 4/5/1 8/6/1 6/7/1 3/8/1
f 8/6/1 7/1/1 5/4/1 6/7/1
