# Blender v2.80 (sub 75) OBJ File: 'Fabrics.blend'
# www.blender.org
o PendantMesh02_Plane.005
v 0.420527 0.134558 0.000000
v -0.482419 0.134558 0.000000
v 0.030152 -1.935354 0.000000
v 0.420527 -0.389003 0.000000
v -0.303318 -1.935354 0.000000
v -0.482419 -0.427271 0.000000
v 0.225339 -1.162178 0.000000
v -0.392869 -1.181312 0.000000
vt 0.964299 0.775892
vt 0.978291 0.893711
vt 0.837206 0.899690
vt 0.867704 0.778882
vt 0.978291 0.981497
vt 0.837206 0.981497
vt 0.950307 0.658073
vt 0.898202 0.658073
vn -0.0000 0.0000 -1.0000
s off
f 8/1/1 6/2/1 4/3/1 7/4/1
f 4/3/1 6/2/1 2/5/1 1/6/1
f 5/7/1 8/1/1 7/4/1 3/8/1
