# Blender v2.80 (sub 75) OBJ File: 'Fabrics.blend'
# www.blender.org
o PendantMesh05_Plane.008
v -0.367062 -2.825125 -0.000000
v 0.259753 0.088462 -0.000000
v -0.367062 0.088462 0.000000
v 0.259753 -2.825125 -0.000000
v -0.367062 -0.639934 -0.000000
v -0.367062 -1.368331 -0.000000
v -0.367062 -2.096728 -0.000000
v 0.259753 -0.639934 -0.000000
v 0.259753 -1.368331 -0.000000
v 0.259753 -2.096728 -0.000000
vt 0.470928 0.290129
vt 0.470928 0.401002
vt 0.375517 0.401002
vt 0.375517 0.290129
vt 0.470928 -0.042488
vt 0.470928 0.068384
vt 0.375517 0.068384
vt 0.375517 -0.042488
vt 0.470928 0.179257
vt 0.375517 0.179257
vn -0.0000 0.0000 -1.0000
s off
f 5/1/1 3/2/1 2/3/1 8/4/1
f 1/5/1 7/6/1 10/7/1 4/8/1
f 7/6/1 6/9/1 9/10/1 10/7/1
f 6/9/1 5/1/1 8/4/1 9/10/1
