# Blender v2.80 (sub 75) OBJ File: 'Fabrics.blend'
# www.blender.org
o PendantMesh02_Plane.005
v 0.420527 0.134558 0.000000
v -0.482419 0.134558 0.000000
v 0.030152 -1.935354 0.000000
v 0.420527 -0.389003 0.000000
v -0.303318 -1.935354 0.000000
v -0.482419 -0.427271 0.000000
v 0.225339 -1.162178 0.000000
v -0.392869 -1.181312 0.000000
vt 0.662696 0.138957
vt 0.676689 0.256776
vt 0.535604 0.262755
vt 0.566102 0.141946
vt 0.676689 0.344561
vt 0.535604 0.344561
vt 0.648704 0.021138
vt 0.596600 0.021138
vn -0.0000 0.0000 -1.0000
s off
f 8/1/1 6/2/1 4/3/1 7/4/1
f 4/3/1 6/2/1 2/5/1 1/6/1
f 5/7/1 8/1/1 7/4/1 3/8/1
