# Blender v2.80 (sub 75) OBJ File: 'Foliage01.blend'
# www.blender.org
o GrassMesh02_Mesh.004
v -0.500000 -0.034338 0.080933
v 0.500000 -0.034338 0.080933
v -0.500000 1.237989 -0.442287
v 0.500000 1.237989 -0.442287
v 0.166667 1.237989 -0.185718
v -0.166667 1.237989 -0.185718
v -0.166667 -0.034338 0.337503
v 0.166667 -0.034338 0.337503
v -0.500000 0.813880 -0.176023
v -0.500000 0.389771 -0.001616
v 0.500000 0.389771 -0.001616
v 0.500000 0.813880 -0.176023
v -0.166667 0.389771 0.254953
v -0.166667 0.813880 0.080546
v 0.166667 0.389771 0.254953
v 0.166667 0.813880 0.080546
v 0.368676 -0.023120 -0.045327
v -0.234920 -0.023120 -0.738663
v 0.005909 1.146481 0.270487
v -0.597687 1.146481 -0.422849
v -0.218600 1.146481 -0.346601
v -0.017401 1.146481 -0.115489
v 0.345367 -0.023120 -0.431303
v 0.144168 -0.023120 -0.662415
v 0.190519 0.756614 0.109771
v 0.311442 0.366747 0.004500
v -0.292154 0.366747 -0.688836
v -0.413077 0.756614 -0.583565
v 0.288132 0.366747 -0.381477
v 0.167210 0.756614 -0.276205
v 0.086933 0.366747 -0.612589
v -0.033989 0.756614 -0.507317
v -0.594207 -0.037276 -0.726282
v -0.676290 -0.037276 0.030026
v -0.400971 0.433783 -0.601047
v -0.483054 0.433783 0.155261
v -0.536773 0.433783 -0.114998
v -0.498855 0.433783 -0.374035
v -0.692091 -0.037276 -0.499269
v -0.730009 -0.037276 -0.240233
v -0.290599 0.641098 -0.178729
v -0.426132 0.296241 -0.220474
v -0.210814 0.641098 -0.437766
v -0.346347 0.296241 -0.479511
v -0.171000 0.641098 0.141718
v -0.306534 0.296241 0.099973
v -0.067180 0.296241 -0.677136
v 0.068353 0.641098 -0.635391
v -0.490281 -0.048617 -0.240233
v -0.410497 -0.048617 -0.499269
v -0.003898 0.985956 -0.374035
v -0.083682 0.985956 -0.114998
v 0.035916 0.985956 0.205449
v 0.275269 0.985956 -0.571660
v -0.370683 -0.048617 0.080214
v -0.131330 -0.048617 -0.696895
v 0.639531 -0.037276 -0.235063
v 0.209735 -0.037276 -0.862770
v 0.411309 0.433783 -0.204421
v -0.018486 0.433783 -0.832128
v 0.198160 0.433783 -0.661864
v 0.337921 0.433783 -0.440494
v 0.566143 -0.037276 -0.471136
v 0.426382 -0.037276 -0.692505
vt 0.127775 0.170853
vt 0.184111 0.170853
vt 0.184111 0.248353
vt 0.127775 0.248353
vt 0.015105 0.170853
vt 0.071440 0.170853
vt 0.071440 0.248353
vt 0.015105 0.248353
vt 0.071440 0.015851
vt 0.127775 0.015851
vt 0.127775 0.093352
vt 0.071440 0.093352
vt 0.015105 0.015851
vt 0.015105 0.093352
vt 0.184111 0.015851
vt 0.184111 0.093352
vt 0.127775 0.170853
vt 0.184111 0.170853
vt 0.184111 0.248353
vt 0.127775 0.248353
vt 0.015105 0.170853
vt 0.071440 0.170853
vt 0.071440 0.248353
vt 0.015105 0.248353
vt 0.071440 0.015851
vt 0.127775 0.015851
vt 0.127775 0.093352
vt 0.071440 0.093352
vt 0.015105 0.015851
vt 0.015105 0.093352
vt 0.184111 0.015851
vt 0.184111 0.093352
vt 0.071440 0.015851
vt 0.127775 0.015851
vt 0.127775 0.248353
vt 0.071440 0.248353
vt 0.184111 0.015851
vt 0.184111 0.248353
vt 0.015105 0.248353
vt 0.015105 0.015851
vt 0.015105 0.015851
vt 0.071440 0.015851
vt 0.071440 0.093352
vt 0.015105 0.093352
vt 0.071440 0.170853
vt 0.015105 0.170853
vt 0.127775 0.093352
vt 0.127775 0.170853
vt 0.127775 0.015851
vt 0.184111 0.170853
vt 0.184111 0.248353
vt 0.127775 0.248353
vt 0.184111 0.093352
vt 0.071440 0.248353
vt 0.184111 0.015851
vt 0.015105 0.248353
vt 0.071440 0.015851
vt 0.127775 0.015851
vt 0.127775 0.248353
vt 0.071440 0.248353
vt 0.184111 0.015851
vt 0.184111 0.248353
vt 0.015105 0.248353
vt 0.015105 0.015851
vn 0.1996 0.9751 0.0965
vn 0.5148 0.8380 -0.1812
vn 0.3555 0.8802 -0.3145
vn 0.1320 0.9803 -0.1471
vn -0.5148 0.8380 -0.1812
vn -0.1997 0.9751 0.0965
vn -0.1320 0.9803 -0.1471
vn -0.3555 0.8802 -0.3145
vn -0.4409 -0.0908 0.8929
vn 0.4409 -0.0908 0.8929
vn 0.3370 0.7879 0.5154
vn -0.3369 0.7879 0.5154
vn -0.9849 -0.0676 0.1594
vn -0.7887 0.6148 -0.0025
vn 0.9849 -0.0676 0.1594
vn 0.7887 0.6148 -0.0025
vn -0.0388 0.8411 -0.5395
vn -0.4055 0.7336 -0.5453
vn -0.4448 0.8460 -0.2940
vn -0.1823 0.9467 -0.2655
vn 0.2424 0.9543 0.1749
vn 0.2068 0.9284 -0.3088
vn -0.0157 0.9969 -0.0772
vn 0.0046 0.9674 0.2532
vn 0.6482 -0.0593 -0.7592
vn 0.2204 -0.0484 -0.9742
vn 0.1250 0.5181 -0.8461
vn 0.4958 0.6177 -0.6104
vn 0.9952 -0.0853 -0.0485
vn 0.6540 0.7536 0.0671
vn -0.3139 -0.0421 -0.9485
vn -0.3626 0.4439 -0.8195
vn -0.8988 0.1809 -0.3992
vn -0.9821 0.1311 0.1352
vn -0.4407 0.5246 -0.7284
vn -0.1552 0.6119 -0.7756
vn -0.1546 0.7629 0.6278
vn 0.0166 0.8809 0.4729
vn -0.4890 0.7537 0.4390
vn -0.3467 0.2220 -0.9113
vn 0.1376 -0.0676 -0.9882
vn -0.7236 -0.0908 -0.6843
vn -0.9603 0.2707 0.0670
vn 0.2346 0.6148 -0.7530
vn 0.1098 0.3376 -0.9349
vn 0.3247 0.8380 -0.4386
vn -0.7881 0.0440 0.6140
vn -0.8351 -0.4175 -0.3581
vn -0.9832 -0.0908 0.1586
vn 0.0217 0.8380 0.5453
vn 0.1959 0.8802 0.4323
vn 0.1017 0.9803 0.1694
vn -0.2297 0.6148 0.7545
vn 0.1794 0.9803 -0.0828
vn -0.4422 -0.0676 0.8943
vn 0.4052 0.8802 -0.2472
vn 0.9423 0.1809 -0.2817
vn 0.6578 0.1311 -0.7417
vn 0.8086 0.5246 0.2663
vn 0.6225 0.6119 0.4880
vn -0.2911 0.7629 -0.5772
vn -0.3203 0.8809 -0.3483
vn 0.0857 0.7537 -0.6516
vn 0.8563 0.2220 0.4664
s 1
f 16/1/1 12/2/2 4/3/3 5/4/4
f 9/5/5 14/6/6 6/7/7 3/8/8
f 14/6/6 16/1/1 5/4/4 6/7/7
f 7/9/9 8/10/10 15/11/11 13/12/12
f 13/12/12 15/11/11 16/1/1 14/6/6
f 1/13/13 7/9/9 13/12/12 10/14/14
f 10/14/14 13/12/12 14/6/6 9/5/5
f 8/10/10 2/15/15 11/16/16 15/11/11
f 15/11/11 11/16/16 12/2/2 16/1/1
f 32/17/17 28/18/18 20/19/19 21/20/20
f 25/21/21 30/22/22 22/23/23 19/24/24
f 30/22/22 32/17/17 21/20/20 22/23/23
f 23/25/25 24/26/26 31/27/27 29/28/28
f 29/28/28 31/27/27 32/17/17 30/22/22
f 17/29/29 23/25/25 29/28/28 26/30/30
f 26/30/30 29/28/28 30/22/22 25/21/21
f 24/26/26 18/31/31 27/32/32 31/27/27
f 31/27/27 27/32/32 28/18/18 32/17/17
f 39/33/33 40/34/34 37/35/35 38/36/36
f 40/34/34 34/37/37 36/38/38 37/35/35
f 35/39/39 33/40/40 39/33/33 38/36/36
f 56/41/41 50/42/42 44/43/43 47/44/44
f 47/44/44 44/43/43 43/45/45 48/46/46
f 44/43/43 42/47/47 41/48/48 43/45/45
f 50/42/42 49/49/49 42/47/47 44/43/43
f 41/48/48 45/50/50 53/51/51 52/52/52
f 42/47/47 46/53/53 45/50/50 41/48/48
f 43/45/45 41/48/48 52/52/52 51/54/54
f 49/49/49 55/55/55 46/53/53 42/47/47
f 48/46/46 43/45/45 51/54/54 54/56/56
f 63/57/57 64/58/58 61/59/59 62/60/60
f 64/58/58 58/61/61 60/62/62 61/59/59
f 59/63/63 57/64/64 63/57/57 62/60/60
