# Blender v2.80 (sub 75) OBJ File: 'VentilatorBlend.blend'
# www.blender.org
o VentilatorPropeller_Cylinder.015
v 0.102921 -0.134130 0.105436
v -0.022068 -0.167620 0.105436
v -0.134130 -0.102921 0.105436
v -0.167620 0.022068 0.105436
v -0.102921 0.134130 0.105436
v 0.022068 0.167620 0.105436
v 0.134130 0.102921 0.105436
v 0.167620 -0.022068 0.105436
v 0.081585 -0.106324 0.285628
v -0.017493 -0.132871 0.285628
v -0.106324 -0.081585 0.285628
v -0.132871 0.017493 0.285628
v -0.081585 0.106324 0.285628
v 0.017493 0.132871 0.285628
v 0.106324 0.081585 0.285628
v 0.132871 -0.017493 0.285628
v 0.035243 -0.045930 0.390640
v -0.007557 -0.057399 0.390640
v -0.045930 -0.035244 0.390640
v -0.057398 0.007557 0.390640
v -0.035243 0.045930 0.390640
v 0.007557 0.057398 0.390640
v 0.045930 0.035243 0.390640
v 0.057398 -0.007557 0.390640
v 0.063739 -0.083067 0.082278
v -0.013667 -0.103808 0.082278
v -0.083067 -0.063739 0.082278
v -0.103807 0.013666 0.082278
v -0.063739 0.083067 0.082278
v 0.013667 0.103807 0.082278
v 0.083067 0.063739 0.082278
v 0.103808 -0.013667 0.082278
v 0.063739 -0.083067 -1.303565
v -0.013667 -0.103808 -1.303565
v -0.083067 -0.063739 -1.303565
v -0.103807 0.013666 -1.303565
v -0.063739 0.083067 -1.303565
v 0.013667 0.103807 -1.303565
v 0.083067 0.063739 -1.303565
v 0.103808 -0.013667 -1.303565
v 0.308777 -0.402407 -1.213484
v -0.066206 -0.502883 -1.213484
v -0.402407 -0.308777 -1.213484
v -0.502883 0.066206 -1.213484
v -0.308778 0.402407 -1.213484
v 0.066206 0.502883 -1.213484
v 0.402407 0.308777 -1.213484
v 0.502883 -0.066206 -1.213484
v 0.275264 -0.358731 -1.455038
v -0.059020 -0.448302 -1.455038
v -0.358731 -0.275264 -1.455038
v -0.448302 0.059020 -1.455038
v -0.275264 0.358731 -1.455038
v 0.059020 0.448302 -1.455038
v 0.358731 0.275264 -1.455038
v 0.448302 -0.059020 -1.455038
v 0.097365 -0.126888 -1.672234
v -0.020876 -0.158571 -1.672234
v -0.126888 -0.097365 -1.672234
v -0.158570 0.020876 -1.672234
v -0.097365 0.126888 -1.672234
v 0.020876 0.158570 -1.672234
v 0.126888 0.097365 -1.672234
v 0.158571 -0.020876 -1.672234
v 0.000000 -0.000000 -2.089139
v -0.496360 0.664061 0.218483
v 0.528393 0.724059 0.017735
v -0.034721 -0.028147 0.046630
v 0.161536 -0.058821 0.056958
v -0.565957 0.822863 0.260881
v 0.492182 0.904292 0.021347
v -0.560646 0.989569 0.274705
v 0.324297 1.103734 0.062940
v -0.486024 1.129429 0.267098
v 0.131551 1.224291 0.113717
v -0.377256 1.205908 0.250903
v -0.143875 1.261464 0.196765
v -0.121971 0.267973 0.068542
v -0.288933 0.510527 0.131366
v 0.512005 0.504393 0.024916
v 0.403404 0.260762 0.031482
v -0.399178 0.676487 0.102755
v 0.422492 0.732400 -0.039626
v -0.015233 0.046623 -0.033005
v 0.139806 0.018746 -0.015995
v -0.457543 0.818562 0.138646
v 0.391846 0.893073 -0.037666
v -0.454669 0.969479 0.151525
v 0.256046 1.073166 -0.006307
v -0.395741 1.098561 0.147767
v 0.100476 1.183934 0.032489
v -0.309025 1.175904 0.138325
v -0.121696 1.226395 0.098259
v -0.088593 0.318211 -0.019504
v -0.227673 0.540441 0.031584
v 0.412299 0.534644 -0.033989
v 0.329136 0.311797 -0.032682
v 0.823274 0.097830 0.218483
v 0.362857 -0.819631 0.017735
v -0.007016 0.044143 0.046630
v -0.131708 -0.110484 0.056958
v 0.995599 0.078701 0.260881
v 0.537049 -0.878388 0.021347
v 1.137315 -0.009251 0.274705
v 0.793713 -0.832716 0.062940
v 1.221126 -0.143806 0.267098
v 0.994492 -0.726072 0.113717
v 1.232975 -0.276240 0.250903
v 1.164397 -0.506133 0.196765
v 0.293057 -0.028357 0.068542
v 0.586596 -0.005040 0.131366
v 0.180815 -0.695606 0.024916
v 0.024125 -0.479739 0.031482
v 0.785444 0.007455 0.102755
v 0.423031 -0.732089 -0.039626
v 0.047994 -0.010119 -0.033005
v -0.053669 -0.130449 -0.015995
v 0.937667 -0.013037 0.138646
v 0.577501 -0.785885 -0.037666
v 1.066929 -0.090984 0.151525
v 0.801366 -0.758325 -0.006307
v 1.149252 -0.206559 0.147767
v 0.975078 -0.678982 0.032489
v 1.172875 -0.320329 0.138325
v 1.122938 -0.507806 0.098259
v 0.319875 -0.082381 -0.019504
v 0.581872 -0.073050 0.031584
v 0.256866 -0.624384 -0.033989
v 0.105457 -0.440939 -0.032682
v -0.326914 -0.761891 0.218483
v -0.891250 0.095572 0.017735
v 0.041737 -0.015996 0.046630
v -0.029828 0.169305 0.056958
v -0.429642 -0.901565 0.260881
v -1.029230 -0.025904 0.021347
v -0.576670 -0.980318 0.274705
v -1.118010 -0.271018 0.062940
v -0.735102 -0.985623 0.267098
v -1.126043 -0.498219 0.113717
v -0.855719 -0.929668 0.250903
v -1.020522 -0.755331 0.196765
v -0.171086 -0.239616 0.068542
v -0.297663 -0.505487 0.131366
v -0.692820 0.191213 0.024916
v -0.427528 0.218977 0.031482
v -0.386266 -0.683942 0.102755
v -0.845523 -0.000312 -0.039626
v -0.032760 -0.036504 -0.033005
v -0.086137 0.111703 -0.015995
v -0.480124 -0.805525 0.138646
v -0.969347 -0.107188 -0.037666
v -0.612259 -0.878495 0.151525
v -1.057412 -0.314840 -0.006307
v -0.753511 -0.892002 0.147767
v -1.075555 -0.504952 0.032489
v -0.863850 -0.855575 0.138325
v -1.001241 -0.718590 0.098259
v -0.231282 -0.235829 -0.019504
v -0.354199 -0.467391 0.031584
v -0.669165 0.089739 -0.033989
v -0.434592 0.129141 -0.032682
v -0.013667 -0.103808 0.082278
v 0.063739 -0.083067 0.082278
v -0.083067 -0.063739 0.082278
v -0.103807 0.013666 0.082278
v -0.063739 0.083067 0.082278
v 0.013667 0.103807 0.082278
v 0.083067 0.063739 0.082278
v 0.103808 -0.013667 0.082278
v -0.013667 -0.103808 -1.303565
v 0.063739 -0.083067 -1.303565
v -0.083067 -0.063739 -1.303565
v -0.103807 0.013666 -1.303565
v -0.063739 0.083067 -1.303565
v 0.013667 0.103807 -1.303565
v 0.083067 0.063739 -1.303565
v 0.103808 -0.013667 -1.303565
v -0.565957 0.822863 0.260881
v -0.496360 0.664061 0.218483
v 0.528393 0.724059 0.017735
v 0.492182 0.904292 0.021347
v -0.560646 0.989569 0.274705
v 0.324297 1.103734 0.062940
v -0.486024 1.129429 0.267098
v 0.131551 1.224291 0.113717
v -0.143875 1.261464 0.196765
v -0.377256 1.205908 0.250903
v 0.403404 0.260762 0.031482
v 0.512005 0.504393 0.024916
v -0.288933 0.510527 0.131366
v -0.121971 0.267973 0.068542
v 0.161536 -0.058821 0.056958
v -0.034721 -0.028147 0.046630
v 0.995599 0.078701 0.260881
v 0.823274 0.097830 0.218483
v 0.362857 -0.819631 0.017735
v 0.537049 -0.878388 0.021347
v 1.137315 -0.009251 0.274705
v 0.793713 -0.832716 0.062940
v 1.221126 -0.143806 0.267098
v 0.994492 -0.726072 0.113717
v 1.164397 -0.506133 0.196765
v 1.232975 -0.276240 0.250903
v 0.024125 -0.479739 0.031482
v 0.180815 -0.695606 0.024916
v 0.586596 -0.005040 0.131366
v 0.293057 -0.028357 0.068542
v -0.131708 -0.110484 0.056958
v -0.007016 0.044143 0.046630
v -0.429642 -0.901565 0.260881
v -0.326914 -0.761891 0.218483
v -0.891250 0.095572 0.017735
v -1.029230 -0.025904 0.021347
v -0.576670 -0.980318 0.274705
v -1.118010 -0.271018 0.062940
v -0.735102 -0.985623 0.267098
v -1.126043 -0.498219 0.113717
v -1.020522 -0.755331 0.196765
v -0.855719 -0.929668 0.250903
v -0.427528 0.218977 0.031482
v -0.692820 0.191213 0.024916
v -0.297663 -0.505487 0.131366
v -0.171086 -0.239616 0.068542
v -0.029828 0.169305 0.056958
v 0.041737 -0.015996 0.046630
vt 0.002054 0.762310
vt 0.004522 0.748016
vt 0.015090 0.752078
vt 0.013521 0.765322
vt 0.519092 0.286366
vt 0.512810 0.282804
vt 0.513134 0.279483
vt 0.520193 0.277600
vt 0.460304 0.297424
vt 0.497604 0.283664
vt 0.503896 0.290254
vt 0.484772 0.331162
vt 0.528850 0.332485
vt 0.512222 0.291502
vt 0.489565 0.231136
vt 0.530123 0.231069
vt 0.514745 0.270294
vt 0.505862 0.269137
vt 0.559482 0.302412
vt 0.461391 0.258929
vt 0.498831 0.274468
vt 0.559482 0.260334
vt 0.505310 0.278064
vt 0.505025 0.281436
vt 0.508074 0.276055
vt 0.511355 0.276703
vt 0.510074 0.284763
vt 0.506843 0.284193
vt 0.004852 0.826219
vt 0.001143 0.807869
vt 0.014758 0.807497
vt 0.018513 0.821759
vt 0.014758 0.807497
vt 0.013198 0.793131
vt 0.239286 0.792410
vt 0.239456 0.803615
vt 0.000377 0.791774
vt 0.013198 0.793131
vt 0.009275 0.734026
vt 0.018021 0.739657
vt 0.018470 0.721969
vt 0.023070 0.728850
vt 0.000788 0.776799
vt 0.012907 0.779045
vt 0.017632 0.845213
vt 0.025034 0.834057
vt 0.013521 0.765322
vt 0.015090 0.752078
vt 0.239466 0.758826
vt 0.239292 0.770009
vt 0.792988 0.804072
vt 0.801816 0.795371
vt 0.861145 0.819789
vt 0.817671 0.863268
vt 0.018021 0.739657
vt 0.239745 0.747650
vt 0.023070 0.728850
vt 0.240106 0.735100
vt 0.012907 0.779045
vt 0.239231 0.781205
vt 0.025034 0.834057
vt 0.018513 0.821759
vt 0.239733 0.814801
vt 0.240106 0.825933
vt 0.771912 0.795108
vt 0.780597 0.803960
vt 0.756156 0.863270
vt 0.712672 0.819768
vt 0.780826 0.774006
vt 0.771997 0.782703
vt 0.712674 0.758302
vt 0.756144 0.714812
vt 0.801913 0.782966
vt 0.793217 0.774121
vt 0.817658 0.714807
vt 0.861145 0.758295
vt 0.740354 0.037186
vt 0.772863 0.010656
vt 0.796551 0.058273
vt 0.783009 0.073897
vt 0.714188 0.116437
vt 0.720171 0.074057
vt 0.775284 0.093997
vt 0.774511 0.116018
vt 0.749533 0.198032
vt 0.723699 0.159567
vt 0.780990 0.137267
vt 0.794081 0.154969
vt 0.847453 0.226343
vt 0.791779 0.224447
vt 0.811978 0.166481
vt 0.831361 0.169987
vt 0.814627 0.000377
vt 0.813878 0.049582
vt 0.847453 0.105841
vt 0.391823 0.804548
vt 0.332368 0.784468
vt 0.399891 0.737403
vt 0.414652 0.783455
vt 0.414652 0.650187
vt 0.275338 0.735656
vt 0.263903 0.709298
vt 0.410176 0.622657
vt 0.268209 0.668271
vt 0.394948 0.601395
vt 0.282923 0.634977
vt 0.372878 0.590087
vt 0.316281 0.604290
vt 0.351947 0.589979
vt 0.296949 0.762470
vt 0.400591 0.690359
vt 0.546096 0.376141
vt 0.564601 0.392891
vt 0.551423 0.435499
vt 0.497035 0.399249
vt 0.560207 0.512079
vt 0.555506 0.536211
vt 0.440173 0.469433
vt 0.449552 0.445863
vt 0.541590 0.555549
vt 0.442075 0.504247
vt 0.522091 0.566667
vt 0.452798 0.532038
vt 0.504258 0.568688
vt 0.476346 0.557790
vt 0.467503 0.421080
vt 0.550539 0.477877
vt 0.581308 0.523784
vt 0.576087 0.552976
vt 0.422982 0.462247
vt 0.434182 0.434498
vt 0.559329 0.575376
vt 0.425605 0.505113
vt 0.535407 0.587833
vt 0.439956 0.541246
vt 0.512184 0.589226
vt 0.473470 0.574903
vt 0.455395 0.406671
vt 0.490207 0.383454
vt 0.568278 0.434711
vt 0.569209 0.482339
vt 0.548070 0.359287
vt 0.581308 0.387617
vt 0.543326 0.804548
vt 0.483871 0.784468
vt 0.551394 0.737403
vt 0.566155 0.783455
vt 0.566155 0.650187
vt 0.426841 0.735656
vt 0.415406 0.709298
vt 0.561679 0.622657
vt 0.419712 0.668271
vt 0.546452 0.601395
vt 0.434426 0.634977
vt 0.524381 0.590087
vt 0.467784 0.604290
vt 0.503450 0.589979
vt 0.448452 0.762470
vt 0.552094 0.690359
vt 0.583417 0.017231
vt 0.601923 0.033980
vt 0.588745 0.076588
vt 0.534356 0.040339
vt 0.597529 0.153169
vt 0.592827 0.177300
vt 0.477495 0.110522
vt 0.486873 0.086952
vt 0.578912 0.196638
vt 0.479397 0.145336
vt 0.559412 0.207757
vt 0.490120 0.173127
vt 0.541580 0.209778
vt 0.513667 0.198880
vt 0.504824 0.062170
vt 0.587860 0.118966
vt 0.618629 0.164873
vt 0.613408 0.194065
vt 0.460304 0.103337
vt 0.471504 0.075588
vt 0.596650 0.216466
vt 0.462927 0.146203
vt 0.572729 0.228922
vt 0.477278 0.182336
vt 0.549505 0.230315
vt 0.510791 0.215992
vt 0.492716 0.047761
vt 0.527528 0.024543
vt 0.605600 0.075800
vt 0.606530 0.123428
vt 0.585392 0.000377
vt 0.618629 0.028706
vt 0.128297 0.721215
vt 0.068842 0.701135
vt 0.136365 0.654070
vt 0.151126 0.700123
vt 0.151126 0.566854
vt 0.011812 0.652323
vt 0.000377 0.625965
vt 0.146650 0.539324
vt 0.004683 0.584938
vt 0.131423 0.518062
vt 0.019397 0.551644
vt 0.109352 0.506754
vt 0.052755 0.520957
vt 0.088421 0.506646
vt 0.033423 0.679137
vt 0.137065 0.607026
vt 0.387017 0.376141
vt 0.405522 0.392891
vt 0.392344 0.435499
vt 0.337956 0.399249
vt 0.401128 0.512079
vt 0.396426 0.536211
vt 0.281094 0.469433
vt 0.290472 0.445863
vt 0.382510 0.555549
vt 0.282996 0.504247
vt 0.363011 0.566667
vt 0.293718 0.532038
vt 0.345179 0.568688
vt 0.317266 0.557790
vt 0.308423 0.421081
vt 0.391459 0.477877
vt 0.422228 0.523784
vt 0.417007 0.552976
vt 0.263903 0.462247
vt 0.275103 0.434498
vt 0.400249 0.575376
vt 0.266526 0.505113
vt 0.376328 0.587833
vt 0.280876 0.541246
vt 0.353104 0.589226
vt 0.314390 0.574903
vt 0.296315 0.406671
vt 0.331127 0.383454
vt 0.409199 0.434711
vt 0.410129 0.482339
vt 0.388991 0.359287
vt 0.422228 0.387617
vn 0.7139 0.5478 -0.4362
vn 0.8921 -0.1174 -0.4362
vn 0.3356 -0.0442 -0.9409
vn 0.2686 0.2061 -0.9409
vn -0.5630 0.7338 0.3802
vn -0.3257 0.4245 0.8448
vn 0.0698 0.5305 0.8448
vn 0.1207 0.9170 0.3802
vn -0.1174 -0.8921 -0.4362
vn -0.1207 -0.9170 0.3802
vn -0.7338 -0.5630 0.3802
vn -0.7139 -0.5478 -0.4362
vn -0.8921 0.1174 -0.4362
vn -0.9170 0.1207 0.3802
vn 0.7338 0.5630 0.3802
vn 0.9170 -0.1207 0.3802
vn -0.5478 0.7139 -0.4362
vn 0.5478 -0.7139 -0.4362
vn 0.5630 -0.7338 0.3802
vn 0.1174 0.8921 -0.4362
vn 0.3257 -0.4245 0.8448
vn -0.0698 -0.5305 0.8448
vn 0.5305 -0.0698 0.8448
vn 0.4245 0.3257 0.8448
vn -0.5305 0.0698 0.8448
vn -0.4245 -0.3257 0.8448
vn -0.3356 0.0442 -0.9409
vn -0.2686 -0.2061 -0.9409
vn -0.9914 0.1305 0.0000
vn -0.6088 0.7933 0.0000
vn -0.2061 0.2686 -0.9409
vn 0.2061 -0.2686 -0.9409
vn -0.0442 -0.3356 -0.9409
vn 0.0442 0.3356 -0.9409
vn 0.7933 0.6088 0.0000
vn 0.9914 -0.1305 0.0000
vn -0.1733 -0.1329 0.9759
vn -0.2165 0.0285 0.9759
vn 0.6088 -0.7933 0.0000
vn -0.1305 -0.9914 0.0000
vn 0.1305 0.9914 0.0000
vn -0.7933 -0.6088 0.0000
vn 0.1329 -0.1733 0.9759
vn -0.0285 -0.2165 0.9759
vn 0.1733 0.1329 0.9759
vn 0.2165 -0.0285 0.9759
vn -0.1329 0.1733 0.9759
vn 0.0285 0.2165 0.9759
vn 0.5914 -0.0779 -0.8026
vn 0.3631 -0.4732 -0.8026
vn 0.4679 -0.6098 -0.6396
vn 0.7621 -0.1003 -0.6396
vn 0.0779 0.5914 -0.8026
vn 0.4732 0.3631 -0.8026
vn 0.6098 0.4679 -0.6396
vn 0.1003 0.7621 -0.6396
vn -0.5914 0.0779 -0.8026
vn -0.3631 0.4732 -0.8026
vn -0.4679 0.6098 -0.6396
vn -0.7621 0.1003 -0.6396
vn -0.0779 -0.5914 -0.8026
vn -0.4732 -0.3631 -0.8026
vn -0.6098 -0.4679 -0.6396
vn -0.1003 -0.7621 -0.6396
vn 0.0000 0.0000 -1.0000
vn 0.0368 -0.0034 0.9993
vn 0.0839 -0.0703 0.9940
vn 0.0808 -0.0658 0.9945
vn 0.1998 -0.0813 0.9764
vn 0.1895 -0.0951 0.9772
vn 0.2177 -0.0589 0.9742
vn 0.2215 -0.0546 0.9736
vn 0.2332 -0.0462 0.9713
vn 0.2347 -0.0469 0.9709
vn 0.2447 -0.0633 0.9675
vn 0.2462 -0.0723 0.9665
vn 0.2622 -0.1738 0.9492
vn 0.1425 -0.1145 0.9831
vn 0.1512 -0.1175 0.9815
vn 0.2893 -0.2335 -0.9283
vn -0.5322 -0.1387 -0.8351
vn -0.4507 -0.1213 -0.8844
vn 0.2629 -0.1425 -0.9542
vn -0.5071 -0.2067 -0.8367
vn -0.5400 -0.0070 -0.8416
vn 0.1892 0.2293 -0.9548
vn 0.1929 0.0653 -0.9790
vn -0.5318 0.1393 -0.8353
vn 0.1230 0.4071 -0.9050
vn -0.4831 0.3299 -0.8110
vn 0.0024 0.5636 -0.8260
vn -0.3691 0.5634 -0.7391
vn -0.1873 0.6550 -0.7320
vn 0.2287 -0.0224 -0.9732
vn -0.4385 -0.1436 -0.8871
vn -0.7252 -0.2628 -0.6363
vn -0.7512 -0.0146 -0.6599
vn 0.4789 0.2770 -0.8330
vn 0.4868 0.0189 -0.8733
vn -0.7310 0.1966 -0.6534
vn 0.4044 0.6129 -0.6788
vn -0.6561 0.4451 -0.6094
vn 0.1851 0.8527 -0.4886
vn -0.4882 0.7099 -0.5076
vn -0.1897 0.8967 -0.3999
vn 0.4904 -0.1410 -0.8600
vn 0.5085 -0.3232 -0.7981
vn -0.8252 -0.2874 -0.4862
vn -0.6861 -0.4639 -0.5604
vn 0.5156 -0.4145 -0.7498
vn -0.8717 -0.2192 -0.4383
vn -0.0214 -0.0302 0.9993
vn -0.1028 -0.0375 0.9940
vn -0.0974 -0.0370 0.9945
vn -0.1703 -0.1323 0.9764
vn -0.1771 -0.1166 0.9772
vn -0.1598 -0.1590 0.9742
vn -0.1580 -0.1646 0.9736
vn -0.1566 -0.1788 0.9713
vn -0.1580 -0.1798 0.9709
vn -0.1772 -0.1802 0.9675
vn -0.1857 -0.1771 0.9665
vn -0.2817 -0.1401 0.9492
vn -0.1704 -0.0662 0.9831
vn -0.1773 -0.0722 0.9815
vn -0.3469 -0.1338 -0.9283
vn 0.1460 0.5303 -0.8351
vn 0.1202 0.4510 -0.8844
vn -0.2549 -0.1564 -0.9542
vn 0.0745 0.5425 -0.8367
vn 0.2640 0.4711 -0.8416
vn 0.1039 -0.2785 -0.9548
vn -0.0398 -0.1997 -0.9790
vn 0.3866 0.3909 -0.8353
vn 0.2911 -0.3101 -0.9050
vn 0.5273 0.2534 -0.8110
vn 0.4869 -0.2839 -0.8260
vn 0.6725 0.0379 -0.7391
vn 0.6609 -0.1653 -0.7320
vn -0.1338 -0.1868 -0.9732
vn 0.0949 0.4516 -0.8871
vn 0.1350 0.7595 -0.6363
vn 0.3630 0.6579 -0.6599
vn 0.0005 -0.5532 -0.8330
vn -0.2270 -0.4310 -0.8733
vn 0.5358 0.5347 -0.6534
vn 0.3286 -0.6567 -0.6788
vn 0.7135 0.3456 -0.6094
vn 0.6459 -0.5866 -0.4886
vn 0.8589 0.0679 -0.5076
vn 0.8714 -0.2840 -0.3999
vn -0.3674 -0.3542 -0.8600
vn -0.5342 -0.2787 -0.7981
vn 0.1637 0.8584 -0.4862
vn -0.0587 0.8261 -0.5604
vn -0.6168 -0.2393 -0.7498
vn 0.2459 0.8645 -0.4383
vn -0.0154 0.0336 0.9993
vn 0.0189 0.1078 0.9940
vn 0.0166 0.1028 0.9945
vn -0.0294 0.2137 0.9764
vn -0.0124 0.2117 0.9772
vn -0.0578 0.2179 0.9742
vn -0.0635 0.2192 0.9736
vn -0.0765 0.2250 0.9713
vn -0.0767 0.2267 0.9709
vn -0.0675 0.2436 0.9675
vn -0.0605 0.2494 0.9665
vn 0.0194 0.3140 0.9492
vn 0.0279 0.1807 0.9831
vn 0.0261 0.1896 0.9815
vn 0.0576 0.3673 -0.9283
vn 0.3862 -0.3916 -0.8351
vn 0.3305 -0.3296 -0.8844
vn -0.0080 0.2989 -0.9542
vn 0.4326 -0.3358 -0.8367
vn 0.2760 -0.4642 -0.8416
vn -0.2932 0.0492 -0.9548
vn -0.1531 0.1344 -0.9790
vn 0.1452 -0.5302 -0.8353
vn -0.4141 -0.0970 -0.9050
vn -0.0442 -0.5833 -0.8110
vn -0.4893 -0.2797 -0.8260
vn -0.3034 -0.6014 -0.7391
vn -0.4736 -0.4897 -0.7320
vn -0.0949 0.2093 -0.9732
vn 0.3437 -0.3079 -0.8871
vn 0.5902 -0.4967 -0.6363
vn 0.3882 -0.6433 -0.6599
vn -0.4794 0.2762 -0.8330
vn -0.2597 0.4121 -0.8733
vn 0.1952 -0.7313 -0.6534
vn -0.7330 0.0437 -0.6788
vn -0.0574 -0.7907 -0.6094
vn -0.8310 -0.2660 -0.4886
vn -0.3706 -0.7778 -0.5076
vn -0.6817 -0.6126 -0.3999
vn -0.1231 0.4953 -0.8600
vn 0.0257 0.6019 -0.7981
vn 0.6615 -0.5709 -0.4862
vn 0.7447 -0.3622 -0.5604
vn 0.1012 0.6538 -0.7498
vn 0.6257 -0.6453 -0.4383
s 1
f 7/1/1 8/2/2 169/3/3 168/4/4
f 13/5/5 21/6/6 22/7/7 14/8/8
f 2/9/9 10/10/10 11/11/11 3/12/12
f 4/13/13 3/12/12 11/11/11 12/14/14
f 8/15/2 7/16/1 15/17/15 16/18/16
f 5/19/17 4/13/13 12/14/14 13/5/5
f 1/20/18 8/15/2 16/18/16 9/21/19
f 2/9/9 1/20/18 9/21/19 10/10/10
f 6/22/20 5/19/17 13/5/5 14/8/8
f 9/21/19 17/23/21 18/24/22 10/10/10
f 17/23/21 24/25/23 23/26/24 22/7/7 21/6/6 20/27/25 19/28/26 18/24/22
f 11/11/11 10/10/10 18/24/22 19/28/26
f 15/17/15 14/8/8 22/7/7 23/26/24
f 12/14/14 11/11/11 19/28/26 20/27/25
f 16/18/16 15/17/15 23/26/24 24/25/23
f 13/5/5 12/14/14 20/27/25 21/6/6
f 9/21/19 16/18/16 24/25/23 17/23/21
f 3/29/12 4/30/13 165/31/27 164/32/28
f 28/33/29 166/34/30 174/35/30 173/36/29
f 4/30/13 5/37/17 29/38/31 165/31/27
f 8/2/2 1/39/18 163/40/32 169/3/3
f 1/39/18 2/41/9 162/42/33 163/40/32
f 5/37/17 6/43/20 167/44/34 29/38/31
f 2/45/9 3/29/12 164/32/28 162/46/33
f 6/43/20 7/1/1 168/4/4 167/44/34
f 31/47/35 32/48/36 177/49/36 176/50/35
f 39/51/37 40/52/38 48/53/38 47/54/37
f 32/48/36 25/55/39 171/56/39 177/49/36
f 25/55/39 26/57/40 170/58/40 171/56/39
f 166/34/30 30/59/41 175/60/41 174/35/30
f 26/61/40 27/62/42 172/63/42 170/64/40
f 30/59/41 31/47/35 176/50/35 175/60/41
f 27/62/42 28/33/29 173/36/29 172/63/42
f 7/16/1 6/22/20 14/8/8 15/17/15
f 37/65/43 38/66/44 46/67/44 45/68/43
f 35/69/45 36/70/46 44/71/46 43/72/45
f 33/73/47 34/74/48 42/75/48 41/76/47
f 40/52/38 33/73/47 41/76/47 48/53/38
f 38/66/44 39/51/37 47/54/37 46/67/44
f 36/70/46 37/65/43 45/68/43 44/71/46
f 34/74/48 35/69/45 43/72/45 42/75/48
f 56/77/49 49/78/50 57/79/51 64/80/52
f 54/81/53 55/82/54 63/83/55 62/84/56
f 52/85/57 53/86/58 61/87/59 60/88/60
f 50/89/61 51/90/62 59/91/63 58/92/64
f 55/82/54 56/77/49 64/80/52 63/83/55
f 53/86/58 54/81/53 62/84/56 61/87/59
f 51/90/62 52/85/57 60/88/60 59/91/63
f 49/78/50 50/93/61 58/94/64 57/79/51
f 61/87/59 62/84/56 65/95/65
f 59/91/63 60/88/60 65/95/65
f 57/79/51 58/94/64 65/95/65
f 64/80/52 57/79/51 65/95/65
f 62/84/56 63/83/55 65/95/65
f 60/88/60 61/87/59 65/95/65
f 58/92/64 59/91/63 65/95/65
f 63/83/55 64/80/52 65/95/65
f 192/96/66 188/97/67 191/98/68 193/99/66
f 179/100/69 180/101/70 181/102/71 178/103/72
f 178/103/72 181/102/71 183/104/73 182/105/74
f 182/105/74 183/104/73 185/106/75 184/107/76
f 184/107/76 185/106/75 186/108/77 187/109/77
f 189/110/78 190/111/79 191/98/68 188/97/67
f 189/110/78 180/101/70 179/100/69 190/111/79
f 85/112/80 84/113/81 94/114/82 97/115/83
f 82/116/84 86/117/85 87/118/86 83/119/87
f 86/117/85 88/120/88 89/121/89 87/118/86
f 88/120/88 90/122/90 91/123/91 89/121/89
f 90/122/90 92/124/92 93/125/93 91/123/91
f 96/126/94 97/115/83 94/114/82 95/127/95
f 96/126/94 95/127/95 82/116/84 83/119/87
f 66/128/96 70/129/97 86/117/85 82/116/84
f 71/130/98 67/131/99 83/119/87 87/118/86
f 70/129/97 72/132/100 88/120/88 86/117/85
f 73/133/101 71/130/98 87/118/86 89/121/89
f 72/132/100 74/134/102 90/122/90 88/120/88
f 75/135/103 73/133/101 89/121/89 91/123/91
f 76/136/104 77/137/105 93/125/93 92/124/92
f 74/134/102 76/136/104 92/124/92 90/122/90
f 77/137/105 75/135/103 91/123/91 93/125/93
f 80/138/106 81/139/107 97/115/83 96/126/94
f 78/140/108 79/141/109 95/127/95 94/114/82
f 67/131/99 80/138/106 96/126/94 83/119/87
f 79/141/109 66/128/96 82/116/84 95/127/95
f 81/139/107 69/142/110 85/112/80 97/115/83
f 68/143/111 78/140/108 94/114/82 84/113/81
f 208/144/112 204/145/113 207/146/114 209/147/112
f 195/148/115 196/149/116 197/150/117 194/151/118
f 194/151/118 197/150/117 199/152/119 198/153/120
f 198/153/120 199/152/119 201/154/121 200/155/122
f 200/155/122 201/154/121 202/156/123 203/157/123
f 205/158/124 206/159/125 207/146/114 204/145/113
f 205/158/124 196/149/116 195/148/115 206/159/125
f 117/160/126 116/161/127 126/162/128 129/163/129
f 114/164/130 118/165/131 119/166/132 115/167/133
f 118/165/131 120/168/134 121/169/135 119/166/132
f 120/168/134 122/170/136 123/171/137 121/169/135
f 122/170/136 124/172/138 125/173/139 123/171/137
f 128/174/140 129/163/129 126/162/128 127/175/141
f 128/174/140 127/175/141 114/164/130 115/167/133
f 98/176/142 102/177/143 118/165/131 114/164/130
f 103/178/144 99/179/145 115/167/133 119/166/132
f 102/177/143 104/180/146 120/168/134 118/165/131
f 105/181/147 103/178/144 119/166/132 121/169/135
f 104/180/146 106/182/148 122/170/136 120/168/134
f 107/183/149 105/181/147 121/169/135 123/171/137
f 108/184/150 109/185/151 125/173/139 124/172/138
f 106/182/148 108/184/150 124/172/138 122/170/136
f 109/185/151 107/183/149 123/171/137 125/173/139
f 112/186/152 113/187/153 129/163/129 128/174/140
f 110/188/154 111/189/155 127/175/141 126/162/128
f 99/179/145 112/186/152 128/174/140 115/167/133
f 111/189/155 98/176/142 114/164/130 127/175/141
f 113/187/153 101/190/156 117/160/126 129/163/129
f 100/191/157 110/188/154 126/162/128 116/161/127
f 224/192/158 220/193/159 223/194/160 225/195/158
f 211/196/161 212/197/162 213/198/163 210/199/164
f 210/199/164 213/198/163 215/200/165 214/201/166
f 214/201/166 215/200/165 217/202/167 216/203/168
f 216/203/168 217/202/167 218/204/169 219/205/169
f 221/206/170 222/207/171 223/194/160 220/193/159
f 221/206/170 212/197/162 211/196/161 222/207/171
f 149/208/172 148/209/173 158/210/174 161/211/175
f 146/212/176 150/213/177 151/214/178 147/215/179
f 150/213/177 152/216/180 153/217/181 151/214/178
f 152/216/180 154/218/182 155/219/183 153/217/181
f 154/218/182 156/220/184 157/221/185 155/219/183
f 160/222/186 161/211/175 158/210/174 159/223/187
f 160/222/186 159/223/187 146/212/176 147/215/179
f 130/224/188 134/225/189 150/213/177 146/212/176
f 135/226/190 131/227/191 147/215/179 151/214/178
f 134/225/189 136/228/192 152/216/180 150/213/177
f 137/229/193 135/226/190 151/214/178 153/217/181
f 136/228/192 138/230/194 154/218/182 152/216/180
f 139/231/195 137/229/193 153/217/181 155/219/183
f 140/232/196 141/233/197 157/221/185 156/220/184
f 138/230/194 140/232/196 156/220/184 154/218/182
f 141/233/197 139/231/195 155/219/183 157/221/185
f 144/234/198 145/235/199 161/211/175 160/222/186
f 142/236/200 143/237/201 159/223/187 158/210/174
f 131/227/191 144/234/198 160/222/186 147/215/179
f 143/237/201 130/224/188 146/212/176 159/223/187
f 145/235/199 133/238/202 149/208/172 161/211/175
f 132/239/203 142/236/200 158/210/174 148/209/173
